<mxfile host="app.diagrams.net" modified="2023-08-30T20:35:24.011Z" agent="Mozilla/5.0 (Macintosh; Intel Mac OS X 10_15_7) AppleWebKit/537.36 (KHTML, like Gecko) Chrome/115.0.0.0 Safari/537.36" etag="qG8vqmbiUXA3rW88JMOF" version="21.7.1" type="device">
  <diagram name="Page-1" id="bRLGOBtOyNgpe09wFuX8">
    <mxGraphModel dx="1266" dy="654" grid="1" gridSize="10" guides="1" tooltips="1" connect="1" arrows="1" fold="1" page="1" pageScale="1" pageWidth="850" pageHeight="1100" math="0" shadow="0">
      <root>
        <mxCell id="0" />
        <mxCell id="1" parent="0" />
        <mxCell id="Z_oTbL9ftA1rWBwK3Bhk-9" value="" style="edgeStyle=orthogonalEdgeStyle;rounded=0;orthogonalLoop=1;jettySize=auto;html=1;" parent="1" source="Z_oTbL9ftA1rWBwK3Bhk-1" target="Z_oTbL9ftA1rWBwK3Bhk-8" edge="1">
          <mxGeometry relative="1" as="geometry" />
        </mxCell>
        <mxCell id="Z_oTbL9ftA1rWBwK3Bhk-16" value="registeredPets() is never declared???" style="edgeLabel;html=1;align=center;verticalAlign=middle;resizable=0;points=[];" parent="Z_oTbL9ftA1rWBwK3Bhk-9" vertex="1" connectable="0">
          <mxGeometry x="0.05" y="-3" relative="1" as="geometry">
            <mxPoint as="offset" />
          </mxGeometry>
        </mxCell>
        <mxCell id="Z_oTbL9ftA1rWBwK3Bhk-1" value="main.js" style="ellipse;whiteSpace=wrap;html=1;" parent="1" vertex="1">
          <mxGeometry x="340" y="50" width="120" height="80" as="geometry" />
        </mxCell>
        <mxCell id="Z_oTbL9ftA1rWBwK3Bhk-19" style="edgeStyle=orthogonalEdgeStyle;rounded=0;orthogonalLoop=1;jettySize=auto;html=1;entryX=0.5;entryY=1;entryDx=0;entryDy=0;exitX=0.5;exitY=1;exitDx=0;exitDy=0;" parent="1" source="Z_oTbL9ftA1rWBwK3Bhk-2" target="Z_oTbL9ftA1rWBwK3Bhk-10" edge="1">
          <mxGeometry relative="1" as="geometry">
            <mxPoint x="40" y="800" as="targetPoint" />
            <Array as="points">
              <mxPoint x="170" y="600" />
              <mxPoint x="420" y="600" />
            </Array>
          </mxGeometry>
        </mxCell>
        <mxCell id="Z_oTbL9ftA1rWBwK3Bhk-20" value="getWalker() is never declared???" style="edgeLabel;html=1;align=center;verticalAlign=middle;resizable=0;points=[];" parent="Z_oTbL9ftA1rWBwK3Bhk-19" vertex="1" connectable="0">
          <mxGeometry x="-0.2926" relative="1" as="geometry">
            <mxPoint as="offset" />
          </mxGeometry>
        </mxCell>
        <mxCell id="Z_oTbL9ftA1rWBwK3Bhk-2" value="walkers.js" style="ellipse;whiteSpace=wrap;html=1;" parent="1" vertex="1">
          <mxGeometry x="110" y="150" width="120" height="80" as="geometry" />
        </mxCell>
        <mxCell id="Z_oTbL9ftA1rWBwK3Bhk-17" style="edgeStyle=orthogonalEdgeStyle;rounded=0;orthogonalLoop=1;jettySize=auto;html=1;entryX=0;entryY=0.5;entryDx=0;entryDy=0;" parent="1" source="Z_oTbL9ftA1rWBwK3Bhk-4" target="Z_oTbL9ftA1rWBwK3Bhk-10" edge="1">
          <mxGeometry relative="1" as="geometry">
            <Array as="points">
              <mxPoint x="300" y="480" />
            </Array>
          </mxGeometry>
        </mxCell>
        <mxCell id="Z_oTbL9ftA1rWBwK3Bhk-18" value="getWalkers() is never declared???" style="edgeLabel;html=1;align=center;verticalAlign=middle;resizable=0;points=[];" parent="Z_oTbL9ftA1rWBwK3Bhk-17" vertex="1" connectable="0">
          <mxGeometry x="-0.28" relative="1" as="geometry">
            <mxPoint y="-1" as="offset" />
          </mxGeometry>
        </mxCell>
        <mxCell id="Z_oTbL9ftA1rWBwK3Bhk-4" value="citylist.js" style="ellipse;whiteSpace=wrap;html=1;" parent="1" vertex="1">
          <mxGeometry x="240" y="230" width="120" height="80" as="geometry" />
        </mxCell>
        <mxCell id="Z_oTbL9ftA1rWBwK3Bhk-6" value="assignments.js" style="ellipse;whiteSpace=wrap;html=1;" parent="1" vertex="1">
          <mxGeometry x="450" y="230" width="120" height="80" as="geometry" />
        </mxCell>
        <mxCell id="Z_oTbL9ftA1rWBwK3Bhk-8" value="registeredpets.js" style="ellipse;whiteSpace=wrap;html=1;" parent="1" vertex="1">
          <mxGeometry x="690" y="230" width="120" height="80" as="geometry" />
        </mxCell>
        <mxCell id="Z_oTbL9ftA1rWBwK3Bhk-10" value="database.js" style="ellipse;whiteSpace=wrap;html=1;" parent="1" vertex="1">
          <mxGeometry x="360" y="440" width="120" height="80" as="geometry" />
        </mxCell>
        <mxCell id="Z_MxIKWLv0cDsupkZRmb-2" value="" style="endArrow=classic;html=1;rounded=0;entryX=0.5;entryY=0;entryDx=0;entryDy=0;" edge="1" parent="1" source="Z_oTbL9ftA1rWBwK3Bhk-1" target="Z_oTbL9ftA1rWBwK3Bhk-6">
          <mxGeometry width="50" height="50" relative="1" as="geometry">
            <mxPoint x="390" y="380" as="sourcePoint" />
            <mxPoint x="440" y="330" as="targetPoint" />
          </mxGeometry>
        </mxCell>
        <mxCell id="Z_MxIKWLv0cDsupkZRmb-3" value="" style="endArrow=classic;html=1;rounded=0;entryX=0.5;entryY=0;entryDx=0;entryDy=0;exitX=0.283;exitY=0.95;exitDx=0;exitDy=0;exitPerimeter=0;" edge="1" parent="1" source="Z_oTbL9ftA1rWBwK3Bhk-1" target="Z_oTbL9ftA1rWBwK3Bhk-4">
          <mxGeometry width="50" height="50" relative="1" as="geometry">
            <mxPoint x="390" y="380" as="sourcePoint" />
            <mxPoint x="440" y="330" as="targetPoint" />
          </mxGeometry>
        </mxCell>
        <mxCell id="Z_MxIKWLv0cDsupkZRmb-5" value="" style="endArrow=classic;html=1;rounded=0;entryX=0.5;entryY=0;entryDx=0;entryDy=0;exitX=0;exitY=0.5;exitDx=0;exitDy=0;" edge="1" parent="1" source="Z_oTbL9ftA1rWBwK3Bhk-1" target="Z_oTbL9ftA1rWBwK3Bhk-2">
          <mxGeometry width="50" height="50" relative="1" as="geometry">
            <mxPoint x="390" y="380" as="sourcePoint" />
            <mxPoint x="440" y="330" as="targetPoint" />
          </mxGeometry>
        </mxCell>
        <mxCell id="Z_MxIKWLv0cDsupkZRmb-6" value="" style="endArrow=classic;html=1;rounded=0;entryX=1;entryY=0.5;entryDx=0;entryDy=0;exitX=0.5;exitY=1;exitDx=0;exitDy=0;" edge="1" parent="1" source="Z_oTbL9ftA1rWBwK3Bhk-8" target="Z_oTbL9ftA1rWBwK3Bhk-10">
          <mxGeometry width="50" height="50" relative="1" as="geometry">
            <mxPoint x="390" y="380" as="sourcePoint" />
            <mxPoint x="440" y="330" as="targetPoint" />
            <Array as="points">
              <mxPoint x="750" y="480" />
            </Array>
          </mxGeometry>
        </mxCell>
        <mxCell id="Z_MxIKWLv0cDsupkZRmb-7" value="" style="endArrow=classic;html=1;rounded=0;entryX=0.717;entryY=0.025;entryDx=0;entryDy=0;entryPerimeter=0;exitX=0.5;exitY=1;exitDx=0;exitDy=0;" edge="1" parent="1" source="Z_oTbL9ftA1rWBwK3Bhk-6" target="Z_oTbL9ftA1rWBwK3Bhk-10">
          <mxGeometry width="50" height="50" relative="1" as="geometry">
            <mxPoint x="390" y="380" as="sourcePoint" />
            <mxPoint x="440" y="330" as="targetPoint" />
          </mxGeometry>
        </mxCell>
      </root>
    </mxGraphModel>
  </diagram>
</mxfile>
